<svg width="200" height="175" viewBox="0 0 200 175" fill="none" xmlns="http://www.w3.org/2000/svg">
<g clip-path="url(#clip0_2_15)">
<g filter="url(#filter0_d_2_15)">
<path d="M66.36 30.1174C62.56 29.8724 59.08 30.0999 55.6 29.7499C51.04 29.2774 46.78 28.0349 42.8 26.0049C40.38 24.7624 38.2 23.2924 36.4 21.4024C35.12 20.0549 34.34 18.5149 33.86 16.8349C33.76 16.5199 33.74 16.1349 33.98 15.8899C34.72 15.1374 34.82 14.2974 34.52 13.4049C34.36 12.8974 34.62 12.8274 35.1 12.7224C39.98 11.7424 44.9 11.7074 49.88 12.0224C53.32 12.2499 56.78 11.9174 60.14 11.3049C62.96 10.7974 65.76 10.3949 68.6 10.1849C75.02 9.74738 81.3 8.66238 87.62 7.68238C94.9 6.54488 101.8 4.33988 108.76 2.29238C115.52 0.33238 122.46 -0.29762 129.48 0.12238C136.22 0.54238 142.76 2.04738 149.22 3.81488C154.18 5.17988 159.08 6.70238 163.26 9.53738C167.74 12.5824 170.9 16.5024 173.42 20.9649C175.52 24.6924 177.06 28.6299 179.08 32.3749C180.8 35.5949 183.72 37.8699 186.78 40.0399C189.2 41.7549 191.64 43.4524 193.84 45.3949C198.66 49.6474 200.16 54.7749 199.18 60.5849C198.12 66.9549 195.12 72.6949 191.88 78.3824C189.94 81.7774 187.86 85.1024 185.54 88.3049C183.54 91.0699 181.58 93.8349 179.3 96.4424C176.02 100.187 173.54 104.37 170.92 108.482C167.62 113.645 164.82 119.087 160.64 123.742C155.88 129.062 151.98 134.855 147.8 140.49C145.66 143.377 143.14 146.055 140.6 148.68C136.58 152.827 133.5 157.517 130.44 162.207C129.06 164.325 127.4 166.267 125.6 168.14C123.9 169.925 122.12 171.675 119.88 172.9C117.76 174.037 115.5 175.14 112.84 174.982C111.52 174.912 110.64 174.195 110.1 173.232C108.56 170.467 108.32 167.597 109.48 164.675C111.3 160.072 114.14 155.925 117.2 151.882C119.26 149.152 120.96 146.247 123 143.5C126.02 139.422 128.14 134.977 130.5 130.62C132.6 126.752 135 122.99 136.74 118.965C137.3 117.687 137.78 116.41 138.06 115.062C138.16 114.572 138.28 113.995 137.66 113.715C137 113.417 136.58 113.907 136.22 114.275C135.66 114.852 135.14 115.447 134.68 116.077C131.9 119.997 128.8 123.76 126.22 127.785C123.6 131.88 120.24 135.52 116.34 138.705C110.8 143.202 106.32 148.435 102.12 153.895C98.34 158.812 94.04 163.362 89.58 167.79C87.5 169.855 85.2 171.727 82.02 172.427C80.52 172.76 78.96 173.057 77.42 173.092C75.4 173.145 73.98 172.13 73 170.607C70.12 166.162 70.94 162.015 74.42 158.13C77.72 154.472 81.14 150.902 84.32 147.175C88.5 142.292 93.12 137.672 96.82 132.492C99.24 129.097 101.28 125.492 103.84 122.167C105.26 120.33 106.74 118.527 108.32 116.777C110.04 114.887 111.42 112.84 112.76 110.74C113.14 110.145 113.6 109.48 112.92 108.867C112.22 108.22 111.34 108.377 110.54 108.745C108.54 109.655 107.04 111.09 105.6 112.56C102.46 115.78 99.64 119.21 96.76 122.622C93.14 126.91 89.86 131.407 85.54 135.222C82.66 137.777 79.82 140.35 77.02 142.957C70.36 149.135 64.72 155.977 59.06 162.837C57.12 165.182 55.38 167.72 52.56 169.365C49.94 170.87 47.04 171.815 43.88 171.045C41.42 170.45 39.8 168.945 38.76 166.88C37.24 163.87 37.54 161.052 39.3 158.147C43 151.987 47.66 146.44 52.44 140.927C56.18 136.622 59.86 132.282 63.12 127.68C64.14 126.245 65.88 125.352 67.34 124.285C69.78 122.5 72 120.557 74.06 118.457C76.62 115.832 79.82 113.907 82.98 111.912C86.24 109.865 89.48 107.782 92.5 105.472C95.52 103.18 99.2 102.112 102.86 100.975C104.82 100.362 106.82 99.8724 108.8 99.2949C111.42 98.5424 114.04 98.5599 116.76 98.7874C123.56 99.3474 130.38 100.1 137.06 97.7724C140.18 96.6874 143.6 96.6874 146.9 96.1799C149.92 95.7249 153 96.0924 156 95.3574C158.52 94.7274 161.12 95.5324 163.7 95.3574C164.7 95.2874 165.64 95.1999 166.32 94.4299C166.84 93.8349 167 93.2399 166.64 92.5224C166.16 91.5424 165.42 90.7374 164.5 90.0724C162.04 88.2524 159.18 87.3424 155.98 87.1674C151.58 86.9224 147.14 86.8874 142.78 86.0999C142.5 86.0474 142.22 85.9949 141.96 85.9074C138.48 84.6299 138.44 84.0174 139.76 81.6724C141.64 78.3299 144.28 75.5649 147.66 73.3074C150.94 71.1199 154.08 68.7399 157.44 66.6399C164.04 62.4749 170.22 57.8024 176.84 53.6549C179.04 52.2724 180.22 50.2774 180.14 47.8274C180.1 46.6724 179.32 46.1124 178.06 45.8324C175.36 45.2199 173.24 46.0249 171.16 47.4249C166.94 50.2599 162.54 52.8499 157.92 55.1949C154.74 56.7874 151.82 58.7999 148.66 60.4449C147.74 60.9174 146.84 61.4074 145.8 61.6524C144.82 61.8799 144.24 61.4774 143.74 60.8474C143.24 60.1824 143.1 59.5699 143.86 58.9224C146.56 56.6299 149.18 54.2324 151.98 52.0274C154.64 49.9274 157.18 47.7924 159.48 45.3949C162.66 42.0874 166.52 39.2874 169.48 35.7699C170.62 34.4049 171.12 33.1274 170.44 31.4124C169.36 28.7174 167.16 28.4374 164.5 29.8199C162.54 30.8524 161.06 32.4799 159.58 34.0024C157.12 36.5224 154.18 38.5699 151.34 40.7049C149.64 41.9649 147.74 43.0499 146.18 44.4324C143.86 46.4974 141.62 48.6149 139.34 50.6974C138.86 51.1349 138.32 51.5199 137.76 51.8874C137.32 52.1849 136.78 52.3074 136.26 52.0624C135.7 51.7999 135.84 51.3099 135.92 50.9074C136.26 49.0874 137.12 47.4249 138.22 45.8674C138.8 45.0449 139.5 44.2749 139.96 43.3999C142.86 38.0974 146.96 33.4774 150.86 28.7524C151.44 28.0524 151.98 27.3524 152.4 26.5649C153.22 24.9724 152.76 23.5374 151.72 22.2074C150.94 21.2274 148.96 21.0699 147.56 21.7524C146.24 22.3999 145.22 23.2749 144.3 24.3074C142.24 26.5824 140.34 28.9624 138.6 31.4474C137.24 33.4074 135.68 35.2624 133.82 36.8899C131.52 38.9199 129.84 41.3524 128.38 43.8724C127.5 45.3774 126.36 46.7074 125 47.9149C124.76 48.1249 124.5 48.2999 124.24 48.4574C123.86 48.7024 123.42 48.8774 122.98 48.6499C122.5 48.4049 122.44 47.9674 122.58 47.5124C122.82 46.7949 122.98 46.0599 123.32 45.3774C124.42 43.2249 125.16 40.9849 126.06 38.7799C126.58 37.5024 127.32 36.2949 127.98 35.0699C129.22 32.8124 129.98 30.3799 131.4 28.2099C132.32 26.8099 132.16 25.3224 131.5 23.8699C130.72 22.1724 129.46 21.8399 127.9 23.0649C126.08 24.4999 124.24 25.9874 123.28 28.0174C121.44 31.9199 118.78 35.3849 116.3 38.9549C115.4 40.2674 114.78 41.7724 113.96 43.1199C111.72 46.7424 109.24 50.2424 106.54 53.6199C103.2 57.7849 99.9 61.9324 97.2 66.4649C95.72 68.9499 94.38 71.5049 92.9 74.0074C90.74 77.6474 87.26 80.2199 83.64 82.6349C78.44 86.0649 72.74 88.8299 66.96 91.4549C65.78 91.9974 64.52 92.5399 63.48 93.3974C62.44 94.2724 61.04 94.8149 59.78 95.4449C58.3 96.1799 56.92 97.0199 55.48 97.7899C53.54 98.8399 51.64 99.9599 49.44 100.625C42.48 102.725 36.14 105.945 29.74 109.042C25.98 110.862 22.24 112.717 18.5 114.572C15.56 116.025 12.46 117.092 9.04 116.462C7.02 116.095 5.04 115.43 3.18 114.66C1.12 113.802 0.360002 111.93 0.720002 109.83C1.56 104.807 4.68 101.132 9.36 98.3499C14.7 95.1999 20.44 92.6799 26.12 90.0374C28.96 88.7074 31.82 87.3249 34.4 85.6624C41.18 81.2874 48.52 77.7874 55.92 74.3224C59.4 72.6949 62.86 71.0324 66.06 69.0549C71.66 65.5724 77.52 62.3874 82.72 58.4324C86.52 55.5449 89.42 51.9749 92.32 48.4049C95.06 44.9924 96.94 41.2999 98.2 37.2924C98.46 36.4699 98.28 35.8749 97.66 35.2449C95.18 32.7249 91.88 31.7449 88.26 31.2899C80.86 30.2924 73.46 30.0824 66.36 30.1174Z" fill="#9FBF9F"/>
</g>
</g>
<defs>
<filter id="filter0_d_2_15" x="-3.36605" y="-0.00146484" width="206.83" height="182.999" filterUnits="userSpaceOnUse" color-interpolation-filters="sRGB">
<feFlood flood-opacity="0" result="BackgroundImageFix"/>
<feColorMatrix in="SourceAlpha" type="matrix" values="0 0 0 0 0 0 0 0 0 0 0 0 0 0 0 0 0 0 127 0" result="hardAlpha"/>
<feOffset dy="4"/>
<feGaussianBlur stdDeviation="2"/>
<feComposite in2="hardAlpha" operator="out"/>
<feColorMatrix type="matrix" values="0 0 0 0 0 0 0 0 0 0 0 0 0 0 0 0 0 0 0.25 0"/>
<feBlend mode="normal" in2="BackgroundImageFix" result="effect1_dropShadow_2_15"/>
<feBlend mode="normal" in="SourceGraphic" in2="effect1_dropShadow_2_15" result="shape"/>
</filter>
<clipPath id="clip0_2_15">
<rect width="200" height="175" fill="white"/>
</clipPath>
</defs>
</svg>
