<svg width="156" height="176" viewBox="0 0 156 176" fill="none" xmlns="http://www.w3.org/2000/svg">
<path d="M62.12 175.5C68.16 169.68 73.3 163.36 74.56 154.64C75.16 150.5 74.92 146.38 74.8 142.24C74.76 140.78 74.14 139.78 72.8 139.06C66.28 135.4 59.98 131.16 51.86 131.96C57.7 127.32 64.6 128.32 71.68 128.52C68.82 119.52 65.1 111.26 60.18 103.7C57.1 98.98 52.04 97.74 46.36 98.88C39.66 100.22 32.88 100.78 26.2 98.52C24.3 97.88 22.48 97.16 20.12 95.36C28.72 97.38 35.7 95.2 42.46 91.8C46.28 89.9 50.08 87.88 54.52 88.02C56.68 88.1 56.3 86.64 56.34 85.3C56.48 77.96 56.98 70.68 60.48 64C60.72 63.52 60.96 63.04 61.22 62.58C64.52 57.02 64.48 57.04 60.58 51.76C56.86 46.7 52.18 42.9 46.18 40.62C48.92 40.08 50.04 40.24 53.62 41.38C59.32 43.2 64.26 46.34 68.48 50.5C70.2 52.2 71.02 51.88 72.52 50.28C79.14 43.26 81.22 34.58 82.06 25.38C82.14 24.6 82.14 23.8 82.24 22.32C84.02 26.76 83.9 30.8 84 34.74C84.1 39 83.7 43.22 82.36 47.36C81.06 51.34 79.14 54.94 77.02 58.5C74.98 61.96 72.18 65.1 71.38 70.24C82.54 63.62 94.1 65.54 105.4 65.08C116.12 64.64 118.16 63.54 126.36 57.58C124.6 61.58 118.8 65.94 112.46 68.08C105.6 70.4 98.38 70.86 91.28 72C84.58 73.08 79.12 76.28 74.26 80.86C71.66 83.3 72.82 85.86 74.16 88.02C78.12 94.38 83.48 99.68 88.02 105.58C88.76 106.52 89.48 106.94 90.72 106.22C97.9 102.1 105.34 103.08 112.78 105.28C120 107.42 127.2 109.4 134.6 105.68C129.9 111.52 123.44 113.14 116.6 113.8C112.38 114.2 108.08 114 104 115.42C98.94 117.2 97.82 120.04 100.2 124.78C107.66 139.7 111.18 155.32 108.64 172.02C108.46 173.2 108.1 174.34 107.82 175.5H62.12ZM41.02 39.9C32.38 45.02 22.04 44.36 14.24 38.18C22 30.94 34.42 31.74 41.02 39.9ZM102.78 11.94C102.82 19.72 98.08 26.86 91.54 28.7C90.44 29.02 89.08 29.68 88.12 28.78C87.2 27.94 88.2 26.8 88.38 25.8C89.62 19.14 92.34 13.36 98.22 9.54003C99.32 8.82003 100.54 8.26003 101.8 7.90003C102.34 7.76003 102.76 9.48003 102.78 11.94V11.94ZM141.88 29.94C145.84 38.42 140.96 49.96 132.46 52.74C130.84 53.26 130 53.1 130.04 51.1C130.3 41.96 133.88 34.78 141.88 29.94ZM120.02 67.42C127.76 63.38 135.5 63.54 143.34 66.96C146.24 68.22 144.3 69.4 143.3 70.38C136.82 76.8 126.18 75.48 120.02 67.42ZM140.2 104.08C137.74 104.42 137.38 103.32 138.38 100.9C141.2 94.08 145.82 89.4 153.16 87.68C154.68 87.32 155.74 87.18 155.64 89.34C155.38 97.04 148.28 104.02 140.2 104.08ZM113.88 39.7C116.34 48.28 113.66 55.24 107.5 61.22C105.94 62.72 105.2 62.36 104.5 60.44C101.56 52.22 104.5 43.16 113.88 39.7ZM104.68 90.48C98.54 87.04 96.2 81.62 96.34 74.84C96.38 73.12 96.98 72.94 98.44 73.62C104.66 76.6 108.04 83.34 104.68 90.48ZM32.42 103.98C31.74 111.34 26.88 117.42 20.44 119.16C16.74 120.16 16.22 119.62 16.92 115.92C18.34 108.44 22.84 104.06 30.08 102.12C32.32 101.52 32.64 102.4 32.42 103.98ZM140.48 126.72C133.32 126.72 127.46 122.2 126 116.26C125.56 114.46 125.82 113.8 127.74 113.9C134.72 114.26 140.58 116.56 144.78 122.58C146.74 125.38 145.62 126.12 143.04 126.54C142.02 126.7 140.94 126.7 140.48 126.72ZM38.06 86.6C38.18 88.08 38.08 90.12 36.86 90.88C35.78 91.56 34.24 90.06 33.02 89.3C27.66 86.02 24.54 81.4 24.36 74.96C24.3 73.12 24.58 72.36 26.78 72.82C33.28 74.2 38.08 79.86 38.06 86.6V86.6ZM37.94 57.14C35.3 56.98 31.5 56.9 30.52 54.2C29.8 52.22 33.28 50.38 35.3 48.98C39.4 46.12 44 45.26 48.96 46.18C50.6 46.5 51.46 46.98 50.4 48.76C47.34 53.86 44.1 57 37.94 57.14ZM13.82 94.52C6.88 94.3 1.32 89.52 0.299997 83.1C-2.66387e-06 81.3 0.379997 80.76 2.2 80.78C8.88 80.86 13.58 84.02 16.56 89.9C18.72 94.18 18.42 94.68 13.82 94.52ZM129.44 90.66C129.3 96.72 124.98 102.48 119.58 104.04C118.32 104.4 117.76 104.18 117.28 102.82C114.92 96.1 120.48 87.78 127.62 87.48C130.74 87.32 128.88 89.68 129.44 90.66ZM37.04 146.4C32.4 146.48 31.7 145.34 33.8 141.04C36.46 135.62 40.6 133.26 46.26 133.72C48 133.86 48.44 134.22 48.02 136.12C46.6 142.34 42.56 146.3 37.04 146.4ZM57.4 30.64C57.48 33.56 56.98 36.98 54.36 37.9C52.22 38.64 50.86 35.28 49.24 33.62C49.04 33.42 48.9 33.2 48.76 32.98C46.48 29.52 46.32 23.34 48.32 20.82C49.02 19.92 49.54 20.22 50.34 20.5C54.5 22 57.36 26.06 57.4 30.64V30.64ZM84.74 11.1C84.66 13.78 84.64 17.28 82.22 18.2C79.76 19.14 78.16 15.88 76.62 14.06C73.6 10.42 73.82 6.26003 75.2 2.00003C75.78 0.240027 76.78 0.220027 78.16 1.00003C82.12 3.22003 84.88 6.22003 84.74 11.1ZM55.72 125.92C52.64 126.16 49.76 125 47.48 122.54C46 120.96 43.66 118.64 44.66 117.08C45.84 115.26 48.94 114.6 51.48 114.86C54.94 115.24 57.72 117 59.4 120.18C61.78 124.68 61 126.02 55.72 125.92ZM67.06 18.5C72.94 18.58 77.6 23.24 77.4 28.86C77.36 30.08 77.48 31.16 75.6 31.18C70 31.26 65.28 28.04 63.78 22.9C62.72 19.18 63.26 18.46 67.06 18.5ZM54.18 147.92C54.16 142.7 56.82 138.92 61.68 136.8C63.06 136.18 63.48 136.58 64.12 137.64C67.18 142.82 64.38 149.82 58.58 151.4C54.82 152.4 54.18 151.9 54.18 147.92Z" fill="#9FBF9F"/>
</svg>
