<svg width="200" height="175" viewBox="0 0 200 175" fill="none" xmlns="http://www.w3.org/2000/svg">
<g filter="url(#filter0_d_1_8)">
<g filter="url(#filter1_d_1_8)">
<path d="M170.78 24.0275H117.06V54.845C117.06 56.2625 116.26 57.1375 115.58 56.5425L108.42 49.9275C108.16 49.6825 107.82 49.6825 107.56 49.9275L100.88 56.0875C100.68 56.5075 100.34 56.7875 100.04 56.7175C99.68 56.7525 99.38 56.5075 99.18 56.0875L92.52 49.9275C92.26 49.6825 91.92 49.6825 91.62 49.9275L84.46 56.5425C83.8 57.155 82.98 56.245 82.98 54.845V24.0275H29.22C20 24.0275 12.5 30.8 12.5 39.1475V135.905C12.5 144.252 19.98 151.025 29.22 151.025H170.78C180 151.025 187.5 144.252 187.5 135.905V39.1475C187.5 30.8 180.02 24.0275 170.78 24.0275ZM85.16 129.325C85.16 132.685 82.16 135.38 78.48 135.38H39.44C35.76 135.38 32.76 132.685 32.76 129.325V108.675C32.76 105.315 35.76 102.62 39.44 102.62H78.46C82.14 102.62 85.14 105.315 85.14 108.675V129.325H85.16ZM52.82 105.175C51.22 105.175 49.76 105.227 49.52 105.315C49.38 105.367 49.24 105.42 49.14 105.507C48.92 105.717 48.78 106.032 48.66 106.312C48.6 106.435 48.64 106.592 48.64 106.715V131.25C48.64 131.67 48.64 132.09 49.02 132.37C49.16 132.475 49.3 132.545 49.46 132.615C49.72 132.72 51.22 132.807 52.82 132.807C54.42 132.807 56.16 132.737 56.52 132.422C56.74 132.247 56.88 132.002 56.94 131.687C56.96 131.53 56.96 131.372 56.96 131.215V106.855C56.96 106.33 56.92 106.015 56.74 105.77C56.36 105.262 54.4 105.175 52.82 105.175ZM40.32 105.175C39.48 105.175 38.4 105.245 38.04 105.507C37.84 105.665 37.68 105.875 37.6 106.155C37.56 106.295 37.56 106.452 37.56 106.592V131.39C37.56 131.81 37.64 132.09 37.88 132.317C38.3 132.72 39.5 132.807 40.34 132.807C41.18 132.807 42.28 132.737 42.64 132.457C42.86 132.3 43 132.072 43.06 131.775C43.08 131.635 43.1 131.495 43.1 131.355V106.627C43.1 106.207 43.02 105.91 42.8 105.682C42.38 105.28 41.16 105.175 40.32 105.175ZM59.76 105.175C59.7 105.175 59.58 105.192 59.5 105.21C59.44 105.227 59.4 105.227 59.36 105.245C58.82 105.402 58.48 105.735 58.4 106.242C58.38 106.4 58.36 106.557 58.36 106.715V131.267C58.36 132.055 58.66 132.51 59.3 132.72L59.48 132.772C59.58 132.807 59.72 132.825 59.76 132.825C59.82 132.825 60.28 132.755 60.66 132.475C60.88 132.317 61.02 132.09 61.08 131.792C61.1 131.652 61.12 131.512 61.12 131.372V106.645C61.12 106.225 61.04 105.927 60.82 105.7C60.4 105.28 59.8 105.175 59.76 105.175ZM45.88 105.175C45.82 105.175 45.72 105.192 45.66 105.21L45.54 105.245C44.96 105.385 44.56 105.77 44.5 106.312C44.48 106.557 44.48 106.82 44.48 107.082V131.232C44.48 131.705 44.54 132.02 44.74 132.265C45.12 132.755 45.8 132.807 45.86 132.807C45.92 132.807 46.38 132.755 46.76 132.475C46.96 132.317 47.12 132.107 47.2 131.827C47.24 131.687 47.24 131.53 47.24 131.39V106.592C47.24 106.172 47.16 105.892 46.92 105.665C46.52 105.28 45.94 105.175 45.88 105.175ZM73.6 105.175C72.76 105.175 71.68 105.245 71.32 105.507C71.12 105.665 70.96 105.875 70.88 106.155C70.84 106.295 70.84 106.452 70.84 106.592V131.39C70.84 131.81 70.92 132.09 71.16 132.317C71.58 132.72 72.78 132.807 73.62 132.807C74.46 132.807 75.56 132.737 75.92 132.457C76.14 132.3 76.28 132.072 76.34 131.775C76.36 131.635 76.38 131.495 76.38 131.355V106.627C76.38 106.207 76.3 105.91 76.08 105.682C75.66 105.28 74.44 105.175 73.6 105.175ZM79.18 105.175C79.12 105.175 79.02 105.192 78.96 105.21L78.84 105.245C78.26 105.385 77.86 105.77 77.8 106.312C77.78 106.557 77.78 106.82 77.78 107.082V131.232C77.78 131.705 77.84 132.02 78.04 132.265C78.42 132.755 79.1 132.807 79.16 132.807C79.22 132.807 79.68 132.755 80.06 132.475C80.26 132.317 80.42 132.107 80.5 131.827C80.54 131.687 80.54 131.53 80.54 131.39V106.592C80.54 106.172 80.46 105.892 80.22 105.665C79.82 105.28 79.22 105.175 79.18 105.175ZM63.9 105.175C63.84 105.175 63.74 105.192 63.68 105.21L63.56 105.245C62.98 105.385 62.58 105.77 62.52 106.312C62.5 106.557 62.5 106.82 62.5 107.082V131.232C62.5 131.705 62.56 132.02 62.76 132.265C63.14 132.755 63.82 132.807 63.88 132.807C63.94 132.807 64.4 132.755 64.78 132.475C64.98 132.317 65.14 132.107 65.22 131.827C65.26 131.687 65.26 131.53 65.26 131.39V106.592C65.26 106.172 65.18 105.892 64.94 105.665C64.54 105.28 63.96 105.175 63.9 105.175ZM68.06 105.175C68 105.175 67.78 105.227 67.56 105.315C67.42 105.367 67.28 105.42 67.18 105.507C66.96 105.717 66.82 106.032 66.7 106.312C66.64 106.435 66.68 106.592 66.68 106.715V131.25C66.68 131.67 66.68 132.09 67.06 132.37C67.2 132.475 67.34 132.545 67.5 132.615C67.76 132.72 68.02 132.807 68.08 132.807C68.14 132.807 68.6 132.755 68.98 132.457C69.34 132.16 69.46 129.08 69.46 125.737V112.227C69.46 108.885 69.34 105.805 68.98 105.507C68.58 105.245 68.12 105.175 68.06 105.175Z" fill="#9FBF9F"/>
</g>
</g>
<defs>
<filter id="filter0_d_1_8" x="-4" y="0" width="208" height="183" filterUnits="userSpaceOnUse" color-interpolation-filters="sRGB">
<feFlood flood-opacity="0" result="BackgroundImageFix"/>
<feColorMatrix in="SourceAlpha" type="matrix" values="0 0 0 0 0 0 0 0 0 0 0 0 0 0 0 0 0 0 127 0" result="hardAlpha"/>
<feOffset dy="4"/>
<feGaussianBlur stdDeviation="2"/>
<feComposite in2="hardAlpha" operator="out"/>
<feColorMatrix type="matrix" values="0 0 0 0 0 0 0 0 0 0 0 0 0 0 0 0 0 0 0.25 0"/>
<feBlend mode="normal" in2="BackgroundImageFix" result="effect1_dropShadow_1_8"/>
<feBlend mode="normal" in="SourceGraphic" in2="effect1_dropShadow_1_8" result="shape"/>
</filter>
<filter id="filter1_d_1_8" x="8.5" y="24.0275" width="183" height="134.997" filterUnits="userSpaceOnUse" color-interpolation-filters="sRGB">
<feFlood flood-opacity="0" result="BackgroundImageFix"/>
<feColorMatrix in="SourceAlpha" type="matrix" values="0 0 0 0 0 0 0 0 0 0 0 0 0 0 0 0 0 0 127 0" result="hardAlpha"/>
<feOffset dy="4"/>
<feGaussianBlur stdDeviation="2"/>
<feComposite in2="hardAlpha" operator="out"/>
<feColorMatrix type="matrix" values="0 0 0 0 0 0 0 0 0 0 0 0 0 0 0 0 0 0 0.25 0"/>
<feBlend mode="normal" in2="BackgroundImageFix" result="effect1_dropShadow_1_8"/>
<feBlend mode="normal" in="SourceGraphic" in2="effect1_dropShadow_1_8" result="shape"/>
</filter>
</defs>
</svg>
