<svg width="200" height="175" viewBox="0 0 200 175" fill="none" xmlns="http://www.w3.org/2000/svg">
<g clip-path="url(#clip0_2_17)">
<path d="M40 32.8125C48.2813 32.8125 55 25.4639 55 16.4062C55 7.34863 48.2813 0 40 0C31.7188 0 25 7.34863 25 16.4062C25 25.4639 31.7188 32.8125 40 32.8125ZM160 32.8125C168.281 32.8125 175 25.4639 175 16.4062C175 7.34863 168.281 0 160 0C151.719 0 145 7.34863 145 16.4062C145 25.4639 151.719 32.8125 160 32.8125ZM199.281 159.995L185.531 122.397L172.688 138.257L172.063 144.478L180.719 168.13C182.281 172.402 186.031 175 190 175C191.25 175 192.5 174.761 193.719 174.214C198.844 171.958 201.344 165.601 199.281 159.995V159.995ZM188.594 88.2861L182.813 60.874C181.375 54.0381 177 48.2959 171.094 45.5273C165.313 42.793 158.906 43.2373 153.563 46.6553C146.469 51.2354 141.156 58.4473 138.531 66.958L135 78.5449L130 82.0312V49.2188C130 46.2109 127.75 43.75 125 43.75H75C72.25 43.75 70 46.2109 70 49.2188V82.0312L64.9688 78.5449L61.4375 66.958C58.8438 58.4131 53.5 51.2354 46.4063 46.6553C41.0313 43.2373 34.6563 42.793 28.875 45.5273C22.9688 48.2959 18.5938 54.0381 17.1563 60.874L11.4063 88.2861C9.96876 95.1221 11.625 102.368 15.9063 107.666L36.9063 133.608L40.0625 165.259C40.625 170.83 44.9375 175 50 175C50.375 175 50.7188 174.966 51.0938 174.932C56.5938 174.282 60.5313 168.882 59.9375 162.866L56.7813 131.147C56.3125 126.704 54.625 122.568 51.9063 119.185L38.375 102.437L43.875 78.4082L46 85.3809C47.2813 89.6533 49.7188 93.3789 53.6563 96.5234L69.625 107.632C71.0625 108.623 73.4063 109.204 75 109.341H125C126.594 109.204 128.938 108.623 130.375 107.632L146.344 96.5234C150.281 93.3789 152.719 89.6875 154 85.3809L156.125 78.4082L161.625 102.437L148.094 119.185C145.375 122.568 143.688 126.704 143.219 131.147L140.063 162.866C139.469 168.882 143.438 174.282 148.906 174.932C149.281 174.966 149.625 175 150 175C155.031 175 159.375 170.864 159.938 165.259L163.094 133.608L184.094 107.666C188.344 102.368 190.031 95.1221 188.594 88.2861ZM14.4688 122.397L0.718761 159.995C-1.34374 165.601 1.15626 171.958 6.28126 174.214C11.5313 176.47 17.25 173.633 19.2813 168.13L27.9375 144.478L27.3125 138.257L14.4688 122.397V122.397Z" fill="#9FBF9F"/>
</g>
<defs>
<clipPath id="clip0_2_17">
<rect width="200" height="175" fill="white"/>
</clipPath>
</defs>
</svg>
