<svg width="200" height="175" viewBox="0 0 200 175" fill="none" xmlns="http://www.w3.org/2000/svg">
<g filter="url(#filter0_d_1_10)">
<path d="M134.1 127.382C136.2 130.217 136.74 133.787 136.4 137.287C136.2 139.16 135.34 140.525 132.98 140.875C131.78 141.067 130.5 141.61 129.56 140.63C128.56 139.597 129.58 138.687 130.14 137.742C132.82 133.227 131.34 129.115 126.08 127.19C121.5 125.51 117.16 123.725 114.44 119.84C113.88 119.035 112.88 118.282 111.7 118.545C110.48 118.842 110.32 119.997 110.2 120.925C110.02 122.412 110.08 123.9 110.02 125.405C109.78 131.11 106.44 135.467 102.1 139.37C101.16 140.21 99.88 140.77 98.44 140.647C96.56 140.472 95.62 139.72 96.82 138.11C97.76 136.885 98.84 135.695 100.04 134.645C103.8 131.267 102.08 127.785 100.44 124.25C98.96 121.012 96.24 119.7 92.38 120.032C90.22 120.242 88.02 120.137 85.86 120.662C80.62 121.957 79.32 124.267 81.78 128.467C83.46 131.32 85.12 134.155 85.12 137.497C85.12 140.332 82.3 141.995 79.24 140.98C77.72 140.472 77.14 139.562 78.58 138.687C80.88 137.235 80.5 135.52 79.32 133.945C77 130.83 74.46 127.802 71.9 124.827C70.98 123.76 69.46 123.427 67.96 123.41C62.82 123.34 57.74 123.83 52.82 125.3C49.36 126.332 47.24 128.275 47.04 131.582C47 132.317 47.08 133.07 46.44 133.7C45.88 134.277 45.24 134.872 44.3 134.767C43.06 134.61 43.4 133.682 43.36 132.982C43.02 127.382 45.82 123.497 51.36 120.662C57.04 117.757 58.72 113.067 56.5 108.08C55.54 105.98 54.16 104.702 51.22 105.245C49.58 105.542 47.8 105.542 46.12 105.315C43.04 104.877 41.7 102.62 42.9 100.135C44.16 97.5275 44.92 94.64 48.88 93.835C50.96 93.415 49.26 91.315 50.34 90.1075C52.9 90.6675 54.46 92.54 56.36 93.9575C58.02 95.2 59.48 96.6525 61.24 97.825C67.02 101.64 73.08 102.34 79.62 99.015C88.38 94.5525 97.92 92.2425 107.66 95.445C113.56 97.37 118.18 98.07 123.98 95.1125C129.28 92.435 134.62 95.3225 139.28 97.965C143.88 100.59 148.2 103.617 152.92 106.05C159.54 109.445 166.08 107.047 168.24 100.765C169.3 97.65 168.8 94.64 166.12 92.4525C163.24 90.1075 159.54 89.215 155.58 90.0375C153.54 90.4575 152.28 91.735 151.86 93.59C152.12 93.7125 152.32 93.87 152.56 93.8875C154.96 94.185 157.4 94.57 157.04 97.3875C156.8 99.155 152.78 100.642 150.32 100.047C144.86 98.735 142.92 92.19 146.78 88.235C150.26 84.7 159.14 83.6675 166.04 85.995C172.2 88.0775 175.78 92.3825 175.68 97.65C175.52 107.905 163.4 115.045 152.36 111.422C147.04 109.672 142.38 106.995 137.92 103.967C135.92 102.585 133.94 101.15 131.56 100.205C128.98 99.19 126.42 98.8575 123.76 99.89C119.76 101.447 119.54 103.25 121.32 106.645C125.2 113.82 129.16 120.82 134.1 127.382ZM47.14 86.0125C47.44 84.945 48.58 85.995 49.2 86.2925C53.72 88.305 57.3 91.385 61.08 94.2725C67.42 99.1025 72.18 100.17 80.18 96.18C91.02 90.755 102.62 90.09 114.16 94.9375C115.88 95.6725 117.06 95.3575 118.5 94.5875C123.54 91.77 128.94 91.0525 134.54 93.0475C137.2 93.975 139.68 95.2875 142.54 96.565C141.04 89.565 144.52 85.2775 151.64 82.88C148 78.2425 143.3 74.865 137.78 72.4325C126.04 67.235 113.42 66.1325 100.7 67.5675C85 69.3525 70.46 68.145 58.32 58.31C52.18 53.305 45.98 48.265 44.3 40.495C43.76 38.01 42.24 35.7525 40.4 33.74H39.68C38.26 35.9975 36.94 38.3775 36.94 40.95C36.94 42.91 35.92 43.47 34.12 43.9075C30.24 44.8175 26.42 46.3225 25.44 50.015C24.74 52.4825 23.06 53.5675 20.94 54.5475C19 55.44 17 56.28 14.9 56.805C11.82 57.5925 12.04 58.9575 13.68 60.7425C16.68 63.98 20.72 65.345 25.32 65.205C28.04 65.1175 29.52 66.01 30.78 67.9875C34.94 74.41 39.88 80.3775 45.16 86.1175C45.58 86.5025 46.38 88.795 47.14 86.0125ZM157.46 102.13C159.08 103.022 161.04 105.42 163.42 103.372C165.82 101.29 166.64 98.5075 165.3 95.76C163.94 92.925 160.78 92.645 157.72 92.4C160.1 94.85 160.96 97.265 158.8 100.047C158.3 100.73 155.96 101.255 157.46 102.13ZM162.58 116.585C161.88 115.605 161.18 115.097 159.7 115.08C153.92 115.08 148.68 113.365 143.92 110.6C139.86 108.237 135.96 105.665 131.96 103.25C130 102.077 127.9 101.237 125.44 102.077C123.46 102.76 122.58 103.495 123.94 105.612C126.96 110.285 131.44 113.435 136.66 115.885C141.64 118.195 143.86 121.835 143.7 126.577C143.62 128.975 143.5 131.565 139.98 132.475C138.8 132.772 138.82 137.637 139.88 138.127C141.82 139.02 148.44 136.447 149.08 134.365C150.88 128.607 152.32 122.78 150.16 115.85C156.18 120.085 160.8 124.267 164.18 129.377C166.08 132.247 165.36 133.42 161.7 134.557C160.06 135.047 159.28 136.08 159.42 137.462C159.58 138.897 161.04 138.81 162.26 138.845C164.96 138.915 167.6 138.757 170.26 138.267C174.56 137.48 175.74 135.432 173.48 132.107C169.92 126.91 166.18 121.782 162.58 116.585ZM185.52 101.062C183.86 100.432 182.26 99.75 180.54 99.19C179.46 98.84 178.32 98.77 178.22 100.257C178.06 102.532 176.94 104.527 175.6 106.645C179.8 106.872 184.68 103.687 187.52 101.71L185.52 101.062Z" fill="#9FBF9F"/>
</g>
<defs>
<filter id="filter0_d_1_10" x="-4" y="0" width="208" height="183" filterUnits="userSpaceOnUse" color-interpolation-filters="sRGB">
<feFlood flood-opacity="0" result="BackgroundImageFix"/>
<feColorMatrix in="SourceAlpha" type="matrix" values="0 0 0 0 0 0 0 0 0 0 0 0 0 0 0 0 0 0 127 0" result="hardAlpha"/>
<feOffset dy="4"/>
<feGaussianBlur stdDeviation="2"/>
<feComposite in2="hardAlpha" operator="out"/>
<feColorMatrix type="matrix" values="0 0 0 0 0 0 0 0 0 0 0 0 0 0 0 0 0 0 0.25 0"/>
<feBlend mode="normal" in2="BackgroundImageFix" result="effect1_dropShadow_1_10"/>
<feBlend mode="normal" in="SourceGraphic" in2="effect1_dropShadow_1_10" result="shape"/>
</filter>
</defs>
</svg>
