<svg width="200" height="175" viewBox="0 0 200 175" fill="none" xmlns="http://www.w3.org/2000/svg">
<g filter="url(#filter0_d_1_12)">
<path d="M98.58 98.2276C102.08 101.063 105.4 103.758 108.14 105.98C111.72 103.093 115.36 100.223 118.9 97.2651C119.3 96.9326 119.36 96.2151 119.46 95.6551C119.86 93.4676 119.9 91.1751 120.66 89.0751C123.02 82.3901 130.8 77.9451 138.8 78.3476C139.4 78.3826 140.18 77.9976 140.62 77.5951C153.28 66.2026 165.92 54.7926 178.54 43.3826C181.54 40.6701 184.52 37.9401 187.5 35.2276C187.34 35.0176 187.28 34.8776 187.18 34.7726C180.86 29.0501 174.5 23.3276 168.2 17.5876C165.82 15.4176 163.52 13.1776 161.18 10.9551H160.5C160.36 11.1126 160.24 11.2701 160.08 11.4276C144.7 25.2876 129.34 39.1651 114 53.0776C113.42 53.6026 112.94 54.5301 112.98 55.2301C113.6 63.6301 106.26 71.6276 96.68 72.2051C93.22 72.4151 90.86 73.4126 88.92 75.6876C88.58 76.0901 88.12 76.3876 87.72 76.7551C85.72 78.5751 83.72 80.3951 81.64 82.2851C84.88 85.2426 88.02 88.0951 91.24 91.0176C75.5 105.228 59.86 119.385 44.2 133.525L42.42 132.16C37.16 135.695 32.26 139.318 29.08 144.568C25.74 150.045 21.74 155.208 18.06 160.44C19.44 161.683 20.72 162.855 22.06 164.063C22.32 163.94 22.58 163.835 22.82 163.695C28.96 160.178 35.12 156.678 41.24 153.16C42.94 152.18 44.92 151.375 46.26 150.098C48.86 147.595 51.1 144.83 53.5 142.153L51.86 140.455C67.54 126.245 83.2 112.105 98.58 98.2276ZM60.38 80.9026C60.92 80.7626 61.8 81.0076 62.22 81.3576C64.3 83.1251 66.22 85.0501 68.32 86.8001C72.06 89.9151 75.9 92.9426 79.4 95.7601C81.08 94.4826 83.3 92.7851 86.1 90.6326C82.46 87.8151 79.06 85.1726 75.68 82.5476C76.16 82.0576 76.28 81.8651 76.42 81.7251C81.1 77.5076 85.76 73.2726 90.46 69.0901C90.86 68.7401 91.62 68.6176 92.24 68.5826C94.04 68.5126 95.86 68.5651 97.66 68.5651C94.04 64.7851 90.36 61.4776 86.74 58.1176C86.34 57.7326 86.06 56.9801 86.18 56.4726C88.62 46.8126 87.08 37.6601 80.76 29.4876C72.2 18.4101 60.1 13.5101 44.84 14.9101C43.26 15.0501 41.72 15.4526 39.86 15.7851C42.72 18.3751 45.3 20.7026 47.86 23.0301C52 26.7926 56.18 30.5376 60.28 34.3526C60.68 34.7201 60.88 35.5076 60.76 35.9976C59.2 41.5451 57.58 47.0751 55.88 52.5876C55.72 53.1126 55 53.7426 54.4 53.9001C48.34 55.4226 42.26 56.8226 36.2 58.3276C35.28 58.5551 34.78 58.4151 34.14 57.8376C28.7 52.8851 23.22 47.9501 17.76 43.0151C16.5 41.8776 15.2 40.7576 13.76 39.4976C13.3 41.3701 12.92 42.9101 12.54 44.4501V52.5176C12.64 52.7451 12.82 52.9551 12.86 53.1826C15.68 72.5726 37.16 86.7301 60.38 80.9026ZM150.8 116.095C144.32 110.215 137.86 104.318 131.32 98.4901C128.9 96.3376 126.3 94.3426 123.74 92.2426C123.7 92.5401 123.48 93.0301 123.58 93.4676C124.5 97.1426 122.44 99.6101 119.46 101.885C115.52 104.895 111.76 108.08 108.14 111.003C105.32 108.71 101.98 106.015 98.98 103.583C96.94 105.193 94.78 106.89 92.52 108.675C97.1 112.84 101.44 116.795 105.8 120.733C117.48 131.285 129.16 141.838 140.86 152.39C143.92 155.138 146.78 158.095 150.14 160.528C157.18 165.655 167.36 164.903 173.62 159.11C180.1 153.09 180.46 143.22 174.14 137.34C166.46 130.13 158.58 123.148 150.8 116.095ZM166.96 153.51C166.88 153.773 166.32 154.018 165.94 154.123C163.7 154.683 161.48 155.243 159.2 155.698C158.68 155.803 157.86 155.645 157.48 155.33C155.52 153.685 153.6 151.97 151.76 150.203C151.38 149.853 151.18 149.118 151.3 148.645C151.8 146.615 152.4 144.585 153.1 142.608C153.26 142.135 153.82 141.593 154.34 141.453C156.6 140.823 158.92 140.28 161.22 139.825C161.68 139.738 162.42 139.93 162.78 140.228C164.74 141.89 166.62 143.605 168.52 145.338C168.84 145.635 169 146.038 169.16 146.265C168.4 148.803 167.72 151.165 166.96 153.51Z" fill="#9FBF9F"/>
</g>
<defs>
<filter id="filter0_d_1_12" x="-4" y="0" width="208" height="183" filterUnits="userSpaceOnUse" color-interpolation-filters="sRGB">
<feFlood flood-opacity="0" result="BackgroundImageFix"/>
<feColorMatrix in="SourceAlpha" type="matrix" values="0 0 0 0 0 0 0 0 0 0 0 0 0 0 0 0 0 0 127 0" result="hardAlpha"/>
<feOffset dy="4"/>
<feGaussianBlur stdDeviation="2"/>
<feComposite in2="hardAlpha" operator="out"/>
<feColorMatrix type="matrix" values="0 0 0 0 0 0 0 0 0 0 0 0 0 0 0 0 0 0 0.25 0"/>
<feBlend mode="normal" in2="BackgroundImageFix" result="effect1_dropShadow_1_12"/>
<feBlend mode="normal" in="SourceGraphic" in2="effect1_dropShadow_1_12" result="shape"/>
</filter>
</defs>
</svg>
